<svg width="82" height="82" viewBox="0 0 82 82" fill="none" xmlns="http://www.w3.org/2000/svg">
<path d="M11.5 10.9429L24.1399 31.4H37.2208C38.0324 31.4 38.8139 31.3744 39.5655 31.3233L40.6694 29.9039L25.9229 10.9429H11.5Z" fill="#005DFF"/>
<path d="M18.1901 1H1L11.5 10.9429H25.9229L18.1901 1Z" fill="#005DFF"/>
<path fill-rule="evenodd" clip-rule="evenodd" d="M52.0709 68.0944L59.0351 77.2436L61.8264 80.9107H80.3388L70.9602 68.8517L59.7945 54.4948L51.8383 44.2648L49.595 41.3804L41.6081 31.1108L40.6694 29.9039L39.5655 31.3233C38.8139 31.3744 38.0324 31.4 37.2208 31.4H24.1399L11.5 31.1108V41.3429H31.7082L31.7402 41.385L40.5699 52.9849L52.0709 68.0944Z" fill="#005DFF"/>
<path d="M1 1V80.9107L8.66339 71.0572L11.5 67.4099V41.3429V31.1108V10.9429L1 1Z" fill="#005DFF"/>
<path d="M1 1H36.8823M1 1V81M1 1H18.1901M1 1L11.5 10.9429M1 1V80.9107M36.8823 1C46.1683 1 53.5944 2.70929 59.1607 6.12788M36.8823 1H18.1901M1 81H38.4056C45.4015 81 51.7204 79.9714 57.3623 77.9143C57.932 77.6989 58.4896 77.4753 59.0351 77.2436M1 81V80.9107M1 81L8.66339 71.0572M11.5 10.9429V31.1108M11.5 10.9429L24.1399 31.4M11.5 10.9429H25.9229M11.5 31.1108V41.3429M11.5 31.1108L24.1399 31.4M11.5 41.3429V67.4099L8.66339 71.0572M11.5 41.3429H31.7082M18.1901 1L25.9229 10.9429M1 80.9107H18.8512L26.5146 71.0572M1 80.9107L8.66339 71.0572M25.9229 10.9429H37.2208C42.0728 10.9429 45.8529 11.8952 48.561 13.8C49.6831 14.5274 50.582 15.3572 51.2577 16.2894M25.9229 10.9429L40.6694 29.9039M59.1607 6.12788L51.2577 16.2894M59.1607 6.12788C59.4113 6.28179 59.6581 6.43916 59.9012 6.6C64.3955 9.57397 67.0997 13.2732 68.0138 17.6976M59.1607 6.12788L63.1488 1H81L68.0138 17.6976M51.2577 16.2894C52.2809 17.7009 52.7924 19.3473 52.7924 21.2286C52.7924 24.2762 51.3819 26.7524 48.561 28.6571C46.7322 29.892 44.4146 30.7099 41.6081 31.1108M51.2577 16.2894L40.6694 29.9039M24.1399 31.4L31.7082 41.3429M24.1399 31.4H37.2208C38.0324 31.4 38.8139 31.3744 39.5655 31.3233M41.6081 31.1108L40.6694 29.9039M41.6081 31.1108C40.9538 31.2043 40.2729 31.2751 39.5655 31.3233M41.6081 31.1108L49.595 41.3804M70.9602 68.8517C74.0814 65.1813 75.642 61.0021 75.642 56.3143C75.642 51.2857 73.7802 46.981 70.0565 43.4C66.3329 39.7429 61.763 37.1143 56.3468 35.5143C59.7319 34.3714 62.5528 32.5429 64.8096 30.0286C67.1792 27.4381 68.364 24.5048 68.364 21.2286C68.364 20.0043 68.2473 18.8273 68.0138 17.6976M70.9602 68.8517L80.3388 80.9107H61.8264L59.0351 77.2436M70.9602 68.8517C70.8856 68.9396 70.81 69.0271 70.7336 69.1143C67.7917 72.4707 63.8922 75.1804 59.0351 77.2436M70.9602 68.8517L59.7945 54.4948M59.0351 77.2436L52.0709 68.0944M52.0709 68.0944C48.2991 70.0696 43.3491 71.0572 37.2208 71.0572H26.5146M52.0709 68.0944C52.7438 67.742 53.3793 67.3581 53.9772 66.9429C57.9265 64.1238 59.9012 60.5429 59.9012 56.2C59.9012 55.6172 59.8656 55.0488 59.7945 54.4948M52.0709 68.0944L40.5699 52.9849M31.7082 41.3429H37.2208C43.2239 41.3429 48.0964 42.3169 51.8383 44.2648M31.7082 41.3429L31.7402 41.385M51.8383 44.2648L59.7945 54.4948M51.8383 44.2648C52.5979 44.6602 53.3108 45.0958 53.9772 45.5714C57.3965 47.9462 59.3356 50.9207 59.7945 54.4948M51.8383 44.2648L49.595 41.3804M40.6694 29.9039L39.5655 31.3233M39.5655 31.3233L31.7402 41.385M26.5146 71.0572H8.66339M26.5146 71.0572L40.5699 52.9849M8.66339 71.0572L31.7402 41.385M40.5699 52.9849L31.7402 41.385M40.5699 52.9849L49.595 41.3804M68.0138 17.6976L49.595 41.3804" stroke="white" stroke-width="0.5"/>
</svg>
