<svg width="18" height="24" viewBox="0 0 18 24" fill="none" xmlns="http://www.w3.org/2000/svg">
<mask id="path-1-inside-1_599_9" fill="white">
<path d="M0 2.90106H18V19C18 21.7614 15.7614 24 13 24H5C2.23857 24 0 21.7614 0 19V2.90106Z"/>
</mask>
<path d="M0 2.90106H18H0ZM19 19C19 22.3137 16.3137 25 13 25H5C1.68629 25 -1 22.3137 -1 19H1C1 21.2091 2.79086 23 5 23H13C15.2091 23 17 21.2091 17 19H19ZM5 25C1.68629 25 -1 22.3137 -1 19V2.90106H1V19C1 21.2091 2.79086 23 5 23V25ZM19 2.90106V19C19 22.3137 16.3137 25 13 25V23C15.2091 23 17 21.2091 17 19V2.90106H19Z" fill="white" mask="url(#path-1-inside-1_599_9)"/>
<rect x="17.7363" y="1.23072" width="0.527473" height="17.4725" rx="0.263737" transform="rotate(90 17.7363 1.23072)" stroke="white" stroke-width="0.527473"/>
<path d="M7.80005 1C7.80005 0.447716 8.24776 0 8.80005 0H9.72505C10.2773 0 10.725 0.447715 10.725 1V1.14286H7.80005V1Z" fill="white"/>
<rect x="8.75" y="5.25" width="0.5" height="13.3462" rx="0.25" stroke="white" stroke-width="0.5"/>
</svg>
