<svg width="24" height="16" viewBox="0 0 24 16" fill="none" xmlns="http://www.w3.org/2000/svg">
<path fill-rule="evenodd" clip-rule="evenodd" d="M8 16L8.69319 15.3068L15.2929 8.70709L16 7.99999L15.2929 7.29288L8.69319 0.693194L8 0V1.41421L14.5858 7.99999L8 14.5858V16Z" fill="white"/>
<path fill-rule="evenodd" clip-rule="evenodd" d="M0 16L0.693194 15.3068L7.29288 8.70709L7.99999 7.99999L7.29288 7.29288L0.693194 0.693194L0 0V1.41421L6.58577 7.99999L0 14.5858V16Z" fill="white"/>
<path fill-rule="evenodd" clip-rule="evenodd" d="M16 16L16.6932 15.3068L23.2929 8.70709L24 7.99999L23.2929 7.29288L16.6932 0.693194L16 0V1.41421L22.5858 7.99999L16 14.5858V16Z" fill="white"/>
</svg>
